<?xml version="1.0" encoding="UTF-8" standalone="no"?><!-- Generator: Gravit.io --><svg xmlns="http://www.w3.org/2000/svg" xmlns:xlink="http://www.w3.org/1999/xlink" style="isolation:isolate" viewBox="0 0 321.5 400" width="321.5pt" height="400pt"><defs><clipPath id="_clipPath_O67cyCPMRGi6iThJt9UAYjbWPiSntCGQ"><rect width="321.5" height="400"/></clipPath></defs><g clip-path="url(#_clipPath_O67cyCPMRGi6iThJt9UAYjbWPiSntCGQ)"><g><g><clipPath id="_clipPath_SohpIJ9UNJYNdaFTiMpjyozNoVyop1Cj"><rect x="0" y="0" width="321.541" height="400" transform="matrix(1,0,0,1,0,0)" fill="rgb(255,255,255)"/></clipPath><g clip-path="url(#_clipPath_SohpIJ9UNJYNdaFTiMpjyozNoVyop1Cj)"><g><g><g><rect x="0" y="0" width="321.541" height="400" transform="matrix(1,0,0,1,0,0)" fill="none"/><path d=" M 33.762 0 L 287.78 0 C 306.414 0 321.542 15.128 321.542 33.762 L 321.542 353.876 L 273.553 400 L 33.762 400 C 15.128 400 0 384.872 0 366.238 L 0 33.762 C 0 15.128 15.128 0 33.762 0 Z " fill="rgb(0,0,0)" fill-opacity="0.04"/><path d=" M 36.804 4.789 L 284.738 4.789 C 302.926 4.789 317.692 19.555 317.692 37.742 L 317.692 350.192 L 270.852 395.211 L 36.804 395.211 C 18.616 395.211 3.85 380.445 3.85 362.258 L 3.85 37.742 C 3.85 19.555 18.616 4.789 36.804 4.789 Z " fill="rgb(255,255,255)"/><path d=" M 317.692 350.192 L 270.852 395.211 Q 262.551 354.403 270.852 350.192 Q 279.153 345.981 317.692 350.192 Z " fill="rgb(238,238,238)"/><rect x="31.521" y="47.338" width="211.141" height="27.59" transform="matrix(1,0,0,1,0,0)" fill="rgb(238,238,238)"/><rect x="31.521" y="101.669" width="153.605" height="27.59" transform="matrix(1,0,0,1,0,0)" fill="rgb(238,238,238)"/><rect x="31.521" y="156" width="228.293" height="27.59" transform="matrix(1,0,0,1,0,0)" fill="rgb(238,238,238)"/><rect x="31.521" y="208.612" width="171.541" height="27.59" transform="matrix(1,0,0,1,0,0)" fill="rgb(238,238,238)"/><path d=" M 61.758 121.855 L 205.288 83.4 C 208.897 82.432 212.614 84.578 213.581 88.187 L 217.306 102.088 C 218.274 105.698 216.128 109.414 212.518 110.382 L 68.988 148.838 C 65.378 149.805 61.661 147.66 60.694 144.05 L 56.97 130.149 C 56.002 126.539 58.148 122.823 61.758 121.855 Z " fill="rgb(40,40,45)"/><path d=" M 109.746 300.943 L 253.276 262.487 C 256.886 261.52 260.603 263.665 261.57 267.275 L 265.294 281.176 C 266.262 284.785 264.116 288.502 260.506 289.469 L 116.976 327.925 C 113.366 328.893 109.649 326.747 108.682 323.137 L 104.958 309.237 C 103.99 305.627 106.136 301.911 109.746 300.943 Z " fill="rgb(40,40,45)"/><path d=" M 118.781 170.653 Q 111.818 168.121 102.123 161.223 Q 132.413 157.168 146.075 153.7 Q 159.736 150.231 188.362 138.116 Q 183.698 149.147 179.119 154.485 C 169.226 169.353 163.709 172.69 163.349 180.209 C 162.989 187.727 172.312 218.643 174.876 223.229 C 177.441 227.816 181.444 240.198 187.143 241.365 C 192.842 242.53 206.027 240.416 211.916 244.933 Q 222.473 250.469 231.211 268.4 L 131.216 295.193 Q 130.385 273.443 136.258 265.206 C 142.132 256.969 154.556 253.073 157.515 249.303 C 160.216 244.043 158.509 232.349 158.475 227.624 C 158.442 222.899 151.326 191.402 146.948 184.603 C 142.569 177.805 133.992 176.184 118.781 170.653 Z " fill="rgb(108,160,242)"/><path d=" M 197.798 111.605 C 197.798 111.605 198.573 119.206 198.791 122.451 C 199.009 125.683 199.118 128.517 199.122 131.101 C 199.132 136.194 198.819 139.602 198.046 141.98 C 195.982 149.512 186.834 158.675 180.235 169.621 C 175.135 178.216 172.289 186.705 175.04 196.254 C 177.07 201.901 179.04 213.438 187.3 220.663 C 196.909 227.707 212.025 229.466 219.951 237.592 C 228.573 245.735 234.901 255.394 239.478 267.383 L 247.233 264.3 C 242.22 251.459 234.806 240.171 225.537 231.248 C 215.227 221.979 199.762 219.921 192.188 213.722 C 185.637 209.537 185.152 200.069 182.897 193.449 C 180.081 187.055 182.567 182.318 187.373 174.318 C 193.381 164.143 202.949 154.033 206.025 144.781 C 206.967 141.564 207.499 136.842 207.489 131.274 C 207.484 128.527 207.364 125.398 207.138 122.034 C 206.912 118.681 206.145 111.188 206.145 111.188 C 206.141 111.134 197.803 111.659 197.798 111.605 Z " fill="rgb(51,51,55)"/><path d=" M 124.664 298.916 C 124.664 298.916 123.89 291.315 123.671 288.07 C 123.454 284.838 123.345 282.004 123.34 279.42 C 123.33 274.327 123.643 270.919 124.416 268.541 C 126.481 261.009 135.628 251.847 142.228 240.901 C 147.328 232.305 150.173 223.816 147.423 214.268 C 145.393 208.621 143.423 197.083 135.162 189.858 C 125.554 182.814 110.437 181.056 102.512 172.929 C 93.89 164.786 87.562 155.127 82.984 143.138 L 75.229 146.221 C 80.243 159.062 87.657 170.351 96.926 179.273 C 107.235 188.542 122.7 190.601 130.275 196.799 C 136.826 200.984 137.31 210.452 139.565 217.073 C 142.381 223.466 139.895 228.203 135.089 236.204 C 129.082 246.378 119.514 256.489 116.438 265.741 C 115.496 268.958 114.963 273.679 114.973 279.247 C 114.979 281.994 115.099 285.123 115.325 288.487 C 115.55 291.84 116.317 299.333 116.317 299.333 C 116.322 299.387 124.659 298.862 124.664 298.916 Z " fill="rgb(51,51,55)"/></g></g></g></g></g></g></g></svg>